<svg xmlns="http://www.w3.org/2000/svg" viewBox="0 0 420.5 50" xml:space="preserve" class="logo"><g class="connectholland-group"><g class="connect-group"><path class="connect" d="M88.3 19.1c-.4.4-1 .4-1.4 0-.5-.5-1-.8-1.6-1.1-.8-.4-1.6-.7-2.4-.7-1.1 0-2.1.2-3 .6s-1.6 1-2.3 1.6c-.6.7-1.1 1.5-1.4 2.4s-.5 1.8-.5 2.8.2 1.9.5 2.8.8 1.7 1.4 2.4c.6.7 1.4 1.2 2.3 1.6s1.9.6 3 .6c1 0 1.8-.2 2.7-.6.5-.2 1-.6 1.4-1s1-.4 1.4 0l2.7 2.9c.4.4.4 1.1-.1 1.5-.4.3-.8.6-1.3.9-.8.4-1.6.8-2.4 1.1-.8.3-1.6.5-2.4.6s-1.4.2-1.9.2c-1.8 0-3.6-.3-5.2-.9s-3.1-1.5-4.2-2.6c-1.2-1.1-2.1-2.5-2.8-4.1-.7-1.6-1-3.4-1-5.3s.3-3.7 1-5.3c.7-1.6 1.6-2.9 2.8-4.1 1.2-1.1 2.6-2 4.2-2.6s3.4-.9 5.2-.9c1.6 0 3.1.3 4.7.9 1.3.5 2.4 1.2 3.4 2.1.4.4.5 1.1 0 1.5l-2.8 2.7zM94.3 24.7c0-1.9.3-3.7 1-5.3.7-1.6 1.6-2.9 2.8-4.1 1.2-1.1 2.6-2 4.2-2.6s3.4-.9 5.2-.9 3.6.3 5.2.9 3.1 1.5 4.2 2.6c1.2 1.1 2.1 2.5 2.8 4.1.7 1.6 1 3.4 1 5.3s-.4 3.7-1 5.3c-.7 1.6-1.6 2.9-2.8 4.1-1.2 1.1-2.6 2-4.2 2.6s-3.4.9-5.2.9-3.6-.3-5.2-.9-3.1-1.5-4.2-2.6C96.9 33 96 31.6 95.3 30s-1-3.3-1-5.3zm6.1 0c0 1 .2 1.9.5 2.8s.8 1.7 1.4 2.4c.6.7 1.4 1.2 2.3 1.6s1.9.6 3 .6 2.1-.2 3-.6 1.6-1 2.3-1.6c.6-.7 1.1-1.5 1.4-2.4s.5-1.8.5-2.8-.2-1.9-.5-2.8-.8-1.7-1.4-2.4c-.6-.7-1.4-1.2-2.3-1.6s-1.9-.6-3-.6-2.1.2-3 .6-1.6 1-2.3 1.6c-.6.7-1.1 1.5-1.4 2.4-.3 1-.5 1.9-.5 2.8zM127.7 12.5h3.8c.6 0 1 .4 1 1v2.9h.1c.6-1.2 1.5-2.3 2.7-3.2 1.2-.9 2.8-1.4 4.9-1.4 1.6 0 3 .3 4.2.8 1.1.5 2.1 1.3 2.8 2.1.7.9 1.2 1.9 1.5 3.1s.5 2.4.5 3.6v15.5h-6.1V24.6c0-.7 0-1.4-.1-2.3-.1-.8-.2-1.6-.5-2.4-.3-.7-.7-1.3-1.4-1.8-.6-.5-1.5-.7-2.5-.7s-1.9.2-2.6.5-1.3.8-1.7 1.4c-.5.6-.8 1.2-1 2s-.3 1.5-.3 2.4v13.4h-6.1V13.5c-.2-.6.3-1 .8-1zM157.1 12.5h3.8c.6 0 1 .4 1 1v2.9h.1c.6-1.2 1.5-2.3 2.7-3.2 1.2-.9 2.8-1.4 4.9-1.4 1.6 0 3 .3 4.2.8 1.1.5 2.1 1.3 2.8 2.1.7.9 1.2 1.9 1.5 3.1s.5 2.4.5 3.6v15.5h-6.2V24.6c0-.7 0-1.4-.1-2.3-.1-.8-.2-1.6-.5-2.4-.3-.7-.7-1.3-1.4-1.8-.6-.5-1.5-.7-2.5-.7s-1.9.2-2.6.5-1.3.8-1.7 1.4c-.5.6-.8 1.2-1 2s-.3 1.5-.3 2.4v13.4h-6.1V13.5c-.1-.6.4-1 .9-1zM190.4 26.9c.2 1.8.9 3.3 2.1 4.3s2.7 1.5 4.5 1.5c1.5 0 2.8-.3 3.9-.9.8-.5 1.5-1 2.1-1.7.4-.4.9-.4 1.3-.1l2.8 2.1c.5.4.5 1.1.1 1.5-1.2 1.3-2.6 2.3-4.1 2.9-1.8.8-3.6 1.1-5.6 1.1-1.8 0-3.6-.3-5.2-.9s-3.1-1.5-4.2-2.6c-1.2-1.1-2.1-2.5-2.8-4.1-.7-1.6-1-3.4-1-5.3s.3-3.7 1-5.3c.7-1.6 1.6-2.9 2.8-4.1 1.2-1.1 2.6-2 4.2-2.6s3.4-.9 5.2-.9c1.7 0 3.3.3 4.7.9 1.4.6 2.6 1.5 3.6 2.6s1.8 2.5 2.4 4.2.8 3.6.8 5.7v1.7h-18.6zm12.6-4.6c0-1.8-.6-3.2-1.7-4.3-1.1-1-2.6-1.6-4.6-1.6-1.8 0-3.3.5-4.4 1.6s-1.7 2.5-2 4.2l12.7.1zM232.4 19.1c-.4.4-1 .4-1.4 0-.5-.5-1-.8-1.6-1.1-.8-.4-1.6-.7-2.4-.7-1.1 0-2.1.2-3 .6s-1.6 1-2.3 1.6c-.6.7-1.1 1.5-1.4 2.4s-.5 1.8-.5 2.8.2 1.9.5 2.8.8 1.7 1.4 2.4c.6.7 1.4 1.2 2.3 1.6s1.9.6 3 .6c1 0 1.8-.2 2.7-.6.5-.2 1-.6 1.4-1s1-.4 1.4 0l2.7 2.9c.4.4.4 1.1-.1 1.5-.4.3-.8.6-1.3.9-.8.4-1.6.8-2.4 1.1-.8.3-1.6.5-2.4.6s-1.4.2-1.9.2c-1.8 0-3.6-.3-5.2-.9s-3.1-1.5-4.2-2.6c-1.2-1.1-2.1-2.5-2.8-4.1-.7-1.6-1-3.4-1-5.3s.3-3.7 1-5.3c.7-1.6 1.6-2.9 2.8-4.1 1.2-1.1 2.6-2 4.2-2.6s3.4-.9 5.2-.9c1.6 0 3.1.3 4.7.9 1.3.5 2.4 1.2 3.4 2.1.4.4.5 1.1 0 1.5l-2.8 2.7zM241.2 12.5V6.4c0-.6.4-1 1-1h4.1c.6 0 1 .4 1 1v6.1h5.8c.6 0 1 .4 1 1v3.2c0 .6-.4 1-1 1h-5.7v10.7c0 1.2.2 2.2.7 2.9.5.7 1.4 1.1 2.7 1.1.5 0 1.1-.1 1.8-.2.6-.1 1.2-.3 1.5-.6v5.2c-.6.3-1.4.5-2.4.6-.9.1-1.8.2-2.5.2-1.6 0-3-.2-4-.5-1-.4-1.9-.9-2.5-1.6s-1-1.6-1.2-2.7-.3-2.4-.3-3.8V12.5z"></path></g><g class="holland-group"><path class="holland" d="M265 .1h2c.6 0 1 .4 1 1v15.3h.1c.3-.5.6-.9 1.1-1.4s1-.9 1.7-1.3 1.4-.7 2.2-.9c.8-.2 1.7-.4 2.6-.4 1.6 0 2.9.2 4.1.7 1.1.5 2.1 1.1 2.8 2 .8.9 1.3 1.9 1.7 3.1.4 1.2.5 2.5.5 4V37h-4V22.6c0-2-.4-3.6-1.3-4.8-.9-1.2-2.3-1.7-4.1-1.7-1.3 0-2.4.2-3.4.7-.9.4-1.7 1.1-2.3 1.9-.6.8-1 1.8-1.3 2.9s-.4 2.4-.4 3.7V37h-4V1c0-.5.5-.9 1-.9zM290.1 25c0-1.9.3-3.6 1-5.1.6-1.5 1.5-2.9 2.7-4 1.1-1.1 2.5-2 4-2.6s3.3-.9 5.1-.9 3.5.3 5.1.9 2.9 1.5 4 2.6 2 2.4 2.7 4c.6 1.5 1 3.2 1 5.1s-.3 3.6-1 5.1c-.6 1.5-1.5 2.9-2.7 4-1.1 1.1-2.5 2-4 2.6-1.6.6-3.3.9-5.1.9s-3.5-.3-5.1-.9-2.9-1.5-4-2.6-2-2.4-2.7-4c-.7-1.5-1-3.2-1-5.1zm4.3 0c0 1.3.2 2.4.6 3.5s1 2 1.7 2.8c.8.8 1.6 1.4 2.7 1.9 1 .5 2.2.7 3.5.7s2.5-.2 3.5-.7 1.9-1.1 2.7-1.9 1.3-1.7 1.7-2.8c.4-1.1.6-2.2.6-3.5s-.2-2.4-.6-3.5c-.4-1.1-1-2-1.7-2.8-.8-.8-1.6-1.4-2.7-1.9-1-.5-2.2-.7-3.5-.7s-2.5.2-3.5.7-1.9 1.1-2.7 1.9c-.8.8-1.3 1.7-1.7 2.8-.4 1.1-.6 2.3-.6 3.5zM322.3.1h2c.6 0 1 .4 1 1v36h-4v-36c0-.6.4-1 1-1zM333.6.1h2c.6 0 1 .4 1 1v36h-4v-36c0-.6.4-1 1-1zM369.1 18.7c0-1.1 0-2.1-.1-3.1 0-.6-.1-1.1-.1-1.6 0-.6.4-1 1-1h1.8c.5 0 1 .4 1 1v1c0 .6.1 1.3.1 2h.1c.3-.6.7-1.1 1.2-1.7.5-.5 1.1-1 1.8-1.5s1.5-.8 2.3-1c.9-.3 1.8-.4 2.8-.4 1.6 0 2.9.2 4.1.7 1.1.5 2.1 1.1 2.8 2 .8.9 1.3 1.9 1.7 3.1s.5 2.5.5 4V37h-4V22.6c0-2-.4-3.6-1.3-4.8-.9-1.2-2.3-1.7-4.1-1.7-1.3 0-2.4.2-3.4.7-.9.4-1.7 1.1-2.3 1.9s-1 1.8-1.3 2.9-.4 2.4-.4 3.7V37h-4V18.7h-.2zM416.5 32.8c-.9 1.4-2 2.5-3.7 3.5-1.6.9-3.5 1.4-5.7 1.4-1.7 0-3.2-.3-4.7-.9s-2.7-1.5-3.8-2.6-1.9-2.5-2.5-4-.9-3.2-.9-5 .3-3.5.9-5c.6-1.5 1.5-2.9 2.6-4s2.4-2 4-2.6 3.3-.9 5.1-.9c1.7 0 3.3.4 4.8 1.1s2.7 1.7 3.8 3h.1V1.3c0-.6.4-1 1-1h2c.6 0 1 .4 1 1v36h-4v-4.5zm0-7.8c0-1.3-.2-2.4-.6-3.5-.4-1.1-1-2-1.7-2.8-.8-.8-1.6-1.4-2.7-1.9-1-.5-2.2-.7-3.5-.7s-2.5.2-3.5.7-1.9 1.1-2.7 1.9-1.3 1.7-1.7 2.8c-.4 1.1-.6 2.2-.6 3.5s.2 2.4.6 3.5c.4 1.1 1 2 1.7 2.8.8.8 1.6 1.4 2.7 1.9 1 .5 2.2.7 3.5.7s2.5-.2 3.5-.7 1.9-1.1 2.7-1.9 1.3-1.7 1.7-2.8c.4-1 .6-2.2.6-3.5zM344.2 16.9c-.4-.4-.4-1.1.1-1.5 1.1-.9 2.2-1.6 3.6-2.1 1.7-.6 3.4-.9 5.1-.9 3.5 0 6.1.8 7.7 2.5 1.6 1.7 2.4 4.2 2.4 7.6v10.3c0 .7 0 1.4.1 2.1s.2 1.4.3 2h-3.8c-.1-.5-.2-1.2-.2-1.8v-1.8h-.1c-.8 1.2-1.8 2.2-3.1 3s-2.9 1.2-4.7 1.2c-1.2 0-2.4-.2-3.5-.5s-2-.8-2.8-1.4-1.4-1.3-1.9-2.2c-.5-.9-.7-1.9-.7-3.1 0-2 .5-3.5 1.5-4.7s2.3-2 3.8-2.5 3.2-.9 4.9-1c1.8-.1 3.4-.2 4.8-.2h1.5v-.7c0-1.7-.5-3.1-1.6-3.9-1-.9-2.5-1.3-4.4-1.3-1.3 0-2.6.2-3.8.6-1 .3-1.9.8-2.6 1.4-.4.3-1 .2-1.3-.1l-1.3-1zm10.9 8.6c-2.6 0-4.6.4-6.1 1.1s-2.3 1.9-2.3 3.5c0 1.5.5 2.6 1.5 3.2s2.3.9 3.8.9c1.2 0 2.2-.2 3-.6.9-.4 1.6-.9 2.2-1.6.6-.6 1-1.4 1.3-2.3s.5-1.8.5-2.8v-1.5l-3.9.1z"></path></g></g><path class="logo-element" d="M49 50H30c-.6 0-1-.4-1-1v-6c0-.6.4-1 1-1h11c.6 0 1-.4 1-1V9c0-.6-.4-1-1-1H30c-.6 0-1-.4-1-1V1c0-.6.4-1 1-1h19c.6 0 1 .4 1 1v48c0 .6-.5 1-1 1zM20 50H1c-.6 0-1-.4-1-1V1c0-.6.4-1 1-1h19c.6 0 1 .4 1 1v6c0 .6-.4 1-1 1H9c-.6 0-1 .4-1 1v32c0 .6.4 1 1 1h11c.6 0 1 .4 1 1v6c0 .6-.5 1-1 1z"></path></svg>